<?xml version="1.0" encoding="UTF-8"?>
<svg xmlns="http://www.w3.org/2000/svg" viewBox="0 0 360 120">
  <!-- Background -->
  <rect width="360" height="120" fill="#0B49B6"/>

  <!-- Left speech bubble -->
  <path d="
    M30 25
    h160
    a25 25 0 0 1 25 25
    v20
    a25 25 0 0 1 -25 25
    h-80
    l-25 20
    v-20
    h-55
    a25 25 0 0 1 -25 -25
    v-20
    a25 25 0 0 1 25 -25
    z"
    fill="#FFFFFF"/>

  <!-- BASE text -->
  <text x="70" y="75"
        font-family="Arial, Helvetica, sans-serif"
        font-size="42"
        font-weight="700"
        fill="#1A1A1A">
    BASE
  </text>

  <!-- Right speech bubble -->
  <path d="
    M190 25
    h120
    a25 25 0 0 1 25 25
    v20
    a25 25 0 0 1 -25 25
    h-45
    l-20 20
    v-20
    h-55
    a25 25 0 0 1 -25 -25
    v-20
    a25 25 0 0 1 25 -25
    z"
    fill="none"
    stroke="#6EC6FF"
    stroke-width="6"/>

  <!-- CLUB text -->
  <text x="215" y="75"
        font-family="Arial, Helvetica, sans-serif"
        font-size="42"
        font-weight="700"
        fill="#9CFF3A">
    CLUB
  </text>
</svg>
